<svg xmlns="http://www.w3.org/2000/svg" xmlns:xlink="http://www.w3.org/1999/xlink" width="500" zoomAndPan="magnify" viewBox="0 0 375 374.999991" height="500" preserveAspectRatio="xMidYMid meet" version="1.0"><defs><clipPath id="a19e262e41"><path d="M 187.5 0 C 83.945312 0 0 83.945312 0 187.5 C 0 291.054688 83.945312 375 187.5 375 C 291.054688 375 375 291.054688 375 187.5 C 375 83.945312 291.054688 0 187.5 0 Z M 187.5 0 " clip-rule="nonzero"/></clipPath></defs><g clip-path="url(#a19e262e41)"><rect x="-37.5" width="450" fill="#2ec2b3" y="-37.499999" height="449.999989" fill-opacity="1"/></g><path stroke-linecap="butt" transform="matrix(0, 0.75, -0.75, 0, 63.022397, 106.126114)" fill="none" stroke-linejoin="miter" d="M -0.00148511 7.498613 L 250.97249 7.498613 " stroke="#000000" stroke-width="15" stroke-opacity="1" stroke-miterlimit="4"/><path stroke-linecap="butt" transform="matrix(-0.00420476, 0.749988, -0.749988, -0.00420476, 82.548061, 106.159131)" fill="none" stroke-linejoin="miter" d="M 0.00175793 7.50169 L 250.979672 7.500871 " stroke="#000000" stroke-width="15" stroke-opacity="1" stroke-miterlimit="4"/><path stroke-linecap="butt" transform="matrix(0.75, 0, 0, 0.75, 51.774047, 100.49948)" fill="none" stroke-linejoin="miter" d="M 176.806491 154.349662 L 175.863783 154.349662 C 175.337741 154.349662 174.915866 153.927787 174.915866 153.406954 L 174.915866 52.500697 C 174.915866 27.646529 154.770031 7.500694 129.915863 7.500694 L -0.000812267 7.500694 " stroke="#000000" stroke-width="15" stroke-opacity="1" stroke-miterlimit="4"/><path stroke-linecap="butt" transform="matrix(0.75, 0, 0, 0.75, 70.24601, 209.821553)" fill="none" stroke-linejoin="miter" d="M 0.000111284 106.024394 L 105.286577 106.024394 C 130.140745 106.024394 150.286579 85.878559 150.286579 61.024391 L 150.286579 -0.00165456 " stroke="#000000" stroke-width="15" stroke-opacity="1" stroke-miterlimit="4"/><path stroke-linecap="butt" transform="matrix(0, 0.75, -0.75, 0, 231.282748, 104.7078)" fill="none" stroke-linejoin="miter" d="M -0.00102543 7.501997 L 250.972949 7.501997 " stroke="#000000" stroke-width="15" stroke-opacity="1" stroke-miterlimit="4"/><path stroke-linecap="butt" transform="matrix(0.75, 0, 0, 0.75, 132.962794, 78.531564)" fill="none" stroke-linejoin="miter" d="M -0.00247556 7.499582 L 250.971499 7.499582 " stroke="#000000" stroke-width="15" stroke-opacity="1" stroke-miterlimit="4"/><path stroke-linecap="butt" transform="matrix(0.75, 0, 0, 0.75, 132.962794, 60.954507)" fill="none" stroke-linejoin="miter" d="M -0.00247556 7.498158 L 250.971499 7.498158 " stroke="#000000" stroke-width="15" stroke-opacity="1" stroke-miterlimit="4"/><path stroke-linecap="butt" transform="matrix(0, 0.75, -0.75, 0, 252.920585, 123.567282)" fill="none" stroke-linejoin="miter" d="M -0.00116805 7.49828 L 250.972807 7.49828 " stroke="#000000" stroke-width="15" stroke-opacity="1" stroke-miterlimit="4"/></svg>