<svg xmlns="http://www.w3.org/2000/svg" xmlns:xlink="http://www.w3.org/1999/xlink" width="700" zoomAndPan="magnify" viewBox="0 0 525 225" height="300" preserveAspectRatio="xMidYMid meet" version="1.0"><defs><g/></defs><path stroke-linecap="butt" transform="matrix(0, 0.75, -0.75, 0, 176.821193, 47.299609)" fill="none" stroke-linejoin="miter" d="M 0.00156323 7.501174 L 152.673445 7.501174 " stroke="#000000" stroke-width="15" stroke-opacity="1" stroke-miterlimit="4"/><path stroke-linecap="butt" transform="matrix(-0.00420476, 0.749988, -0.749988, -0.00420476, 205.125445, 47.363581)" fill="none" stroke-linejoin="miter" d="M -0.0000145127 7.500712 L 152.679464 7.498904 " stroke="#000000" stroke-width="15" stroke-opacity="1" stroke-miterlimit="4"/><path stroke-linecap="butt" transform="matrix(0.75, 0, 0, 0.75, 165.34388, 37.629611)" fill="none" stroke-linejoin="miter" d="M 107.557123 96.832398 L 106.984207 96.832398 C 106.666498 96.832398 106.406082 96.57719 106.406082 96.259482 L 106.406082 35.499062 C 106.406082 20.03552 93.869623 7.499061 78.406081 7.499061 L -0.000172681 7.499061 " stroke="#000000" stroke-width="15" stroke-opacity="1" stroke-miterlimit="4"/><path stroke-linecap="butt" transform="matrix(0.75, 0, 0, 0.75, 193.235836, 95.54463)" fill="none" stroke-linejoin="miter" d="M -0.00194793 81.96133 L 41.216804 81.96133 C 56.680346 81.96133 69.216805 69.424871 69.216805 53.961329 L 69.216805 -0.00221503 " stroke="#000000" stroke-width="15" stroke-opacity="1" stroke-miterlimit="4"/><path stroke-linecap="butt" transform="matrix(0, 0.75, -0.75, 0, 308.026598, 48.135723)" fill="none" stroke-linejoin="miter" d="M 0.00132741 7.499005 L 152.673209 7.499005 " stroke="#000000" stroke-width="15" stroke-opacity="1" stroke-miterlimit="4"/><path stroke-linecap="butt" transform="matrix(0.75, 0, 0, 0.75, 245.149648, 32.004611)" fill="none" stroke-linejoin="miter" d="M -0.00161425 7.499061 L 152.675475 7.499061 " stroke="#000000" stroke-width="15" stroke-opacity="1" stroke-miterlimit="4"/><path stroke-linecap="butt" transform="matrix(0.75, 0, 0, 0.75, 245.149648, 12.949526)" fill="none" stroke-linejoin="miter" d="M -0.00161425 7.499591 L 152.675475 7.499591 " stroke="#000000" stroke-width="15" stroke-opacity="1" stroke-miterlimit="4"/><g fill="#000000" fill-opacity="1"><g transform="translate(199.881949, 191.9515)"><g><path d="M 7.972656 0 C 14.550781 0 17.414062 -3.238281 17.414062 -8.640625 C 17.414062 -14.132812 14.460938 -17.324219 7.972656 -17.324219 L 2.175781 -17.324219 C 1.871094 -17.324219 1.714844 -17.167969 1.714844 -16.863281 L 1.714844 -0.460938 C 1.714844 -0.15625 1.871094 0 2.175781 0 Z M 6.371094 -13.398438 L 7.996094 -13.398438 C 11.246094 -13.398438 12.800781 -11.707031 12.800781 -8.707031 C 12.800781 -5.707031 11.246094 -3.925781 7.996094 -3.925781 L 6.371094 -3.925781 Z M 6.371094 -13.398438 "/></g></g></g><g fill="#000000" fill-opacity="1"><g transform="translate(236.840422, 191.9515)"><g><path d="M 12.960938 0 C 13.265625 0 13.421875 -0.15625 13.421875 -0.460938 L 13.421875 -3.460938 C 13.421875 -3.765625 13.265625 -3.925781 12.960938 -3.925781 L 6.328125 -3.925781 L 6.328125 -5.957031 L 12.058594 -5.957031 C 12.363281 -5.957031 12.519531 -6.125 12.519531 -6.417969 L 12.519531 -9.191406 C 12.519531 -9.496094 12.363281 -9.65625 12.058594 -9.65625 L 6.328125 -9.65625 L 6.328125 -13.398438 L 12.960938 -13.398438 C 13.265625 -13.398438 13.421875 -13.558594 13.421875 -13.863281 L 13.421875 -16.863281 C 13.421875 -17.167969 13.265625 -17.324219 12.960938 -17.324219 L 2.175781 -17.324219 C 1.871094 -17.324219 1.714844 -17.167969 1.714844 -16.863281 L 1.714844 -0.460938 C 1.714844 -0.15625 1.871094 0 2.175781 0 Z M 12.960938 0 "/></g></g></g><g fill="#000000" fill-opacity="1"><g transform="translate(270.065832, 191.9515)"><g><path d="M 11.132812 0 C 11.4375 0 11.59375 -0.15625 11.59375 -0.460938 L 11.59375 -6.632812 L 18.339844 -16.773438 C 18.554688 -17.066406 18.40625 -17.324219 18.035156 -17.324219 L 13.558594 -17.324219 C 13.308594 -17.324219 13.117188 -17.210938 13.003906 -16.996094 L 9.304688 -10.78125 L 5.664062 -16.996094 C 5.550781 -17.210938 5.359375 -17.324219 5.109375 -17.324219 L 0.621094 -17.324219 C 0.257812 -17.324219 0.113281 -17.066406 0.328125 -16.773438 L 6.96875 -6.632812 L 6.96875 -0.460938 C 6.96875 -0.15625 7.140625 0 7.433594 0 Z M 11.132812 0 "/></g></g></g><g fill="#000000" fill-opacity="1"><g transform="translate(307.216036, 191.9515)"><g><path d="M 13.09375 -17.324219 C 12.847656 -17.324219 12.65625 -17.191406 12.566406 -16.953125 L 8.945312 -7.679688 L 5.3125 -16.953125 C 5.222656 -17.191406 5.03125 -17.324219 4.78125 -17.324219 L 0.710938 -17.324219 C 0.371094 -17.324219 0.203125 -17.097656 0.371094 -16.773438 L 8.3125 0 C 8.664062 0.710938 9.214844 0.710938 9.566406 0 L 17.503906 -16.773438 C 17.675781 -17.097656 17.503906 -17.324219 17.167969 -17.324219 Z M 13.09375 -17.324219 "/></g></g></g><g fill="#000000" fill-opacity="1"><g transform="translate(246.347699, 209.902972)"><g><path d="M 2.246094 0 L 2.730469 0 L 2.730469 -5.171875 L 4.679688 -5.171875 L 4.679688 -5.636719 L 0.304688 -5.636719 L 0.304688 -5.171875 L 2.246094 -5.171875 Z M 2.246094 0 "/></g></g></g><g fill="#000000" fill-opacity="1"><g transform="translate(254.55383, 209.902972)"><g><path d="M 0.910156 0 L 4.316406 0 L 4.316406 -0.460938 L 1.402344 -0.460938 L 1.402344 -2.648438 L 4.019531 -2.648438 L 4.019531 -3.101562 L 1.402344 -3.101562 L 1.402344 -5.179688 L 4.226562 -5.179688 L 4.226562 -5.636719 L 0.910156 -5.636719 Z M 0.910156 0 "/></g></g></g><g fill="#000000" fill-opacity="1"><g transform="translate(262.679423, 209.902972)"><g><path d="M 3.375 0.105469 C 4.703125 0.105469 5.789062 -0.675781 6.136719 -1.890625 L 5.621094 -1.890625 C 5.308594 -0.957031 4.4375 -0.386719 3.382812 -0.386719 C 2.003906 -0.386719 1.015625 -1.378906 1.015625 -2.820312 C 1.015625 -4.261719 2.003906 -5.25 3.382812 -5.25 C 4.414062 -5.25 5.25 -4.703125 5.574219 -3.808594 L 6.089844 -3.808594 C 5.71875 -4.992188 4.664062 -5.742188 3.375 -5.742188 C 1.714844 -5.742188 0.515625 -4.535156 0.515625 -2.820312 C 0.515625 -1.101562 1.714844 0.105469 3.375 0.105469 Z M 3.375 0.105469 "/></g></g></g><g fill="#000000" fill-opacity="1"><g transform="translate(272.520344, 209.902972)"><g><path d="M 4.703125 0 L 5.195312 0 L 5.195312 -5.636719 L 4.703125 -5.636719 L 4.703125 -3.109375 L 1.402344 -3.109375 L 1.402344 -5.636719 L 0.910156 -5.636719 L 0.910156 0 L 1.402344 0 L 1.402344 -2.640625 L 4.703125 -2.640625 Z M 4.703125 0 "/></g></g></g></svg>